<svg xmlns="http://www.w3.org/2000/svg" xmlns:xlink="http://www.w3.org/1999/xlink" width="2000" height="1490" viewBox="0 0 2000 1490" role="img" aria-labelledby="title desc"><title id="title">Diez propuestas de logo minimalista BIDACHAT</title><desc id="desc">Cinco variantes B abierta y cinco variantes Diálogo de datos, cada una en modo claro y oscuro.</desc><rect width="2000" height="1490" fill="#F3F7FA"/><style>text{font-family:Inter,Arial,sans-serif}.title{font-weight:750;fill:#123A53}.muted{fill:#5F788A}.section{font-size:25px;font-weight:750;fill:#123A53}.label{font-size:15px;font-weight:700;letter-spacing:1.7px;fill:#678293}.code{font-size:18px;font-weight:750;fill:#007E9E}.name{font-size:20px;font-weight:700;fill:#123A53}.desc{font-size:15px;fill:#5F788A}.word{font-size:28px;font-weight:800;letter-spacing:-1.3px}</style><symbol id="B1" viewBox="0 0 100 100"><path d="M27 18v64M27 19h25c27 0 30 28 4 30H27M27 49h30c29 0 28 33-4 33H27" fill="none" stroke="currentColor" stroke-width="8" stroke-linecap="round" stroke-linejoin="round"/></symbol><symbol id="B2" viewBox="0 0 100 100"><path d="M27 18v64" fill="none" stroke="currentColor" stroke-width="10" stroke-linecap="round"/><path d="M29 20h25c22 0 25 26 2 28M29 51h30c25 0 24 29-1 29H29" fill="none" stroke="currentColor" stroke-width="9" stroke-linecap="round" stroke-linejoin="round"/></symbol><symbol id="B3" viewBox="0 0 100 100"><rect x="23" y="17" width="10" height="66" rx="5" fill="currentColor"/><path d="M33 22h22c25 0 26 25 1 27H33M33 51h25c27 0 26 27-1 27H33" fill="none" stroke="currentColor" stroke-width="9" stroke-linecap="square" stroke-linejoin="round"/></symbol><symbol id="B4" viewBox="0 0 100 100"><path d="M26 18v64M27 20h25c25 0 27 28 1 28H27M27 51h25c26 0 28 29 0 29H27" fill="none" stroke="currentColor" stroke-width="8" stroke-linecap="round" stroke-linejoin="round"/><circle cx="84" cy="51" r="6" fill="currentColor"/></symbol><symbol id="B5" viewBox="0 0 100 100"><path d="M25 18v64M26 20h28c15 0 22 8 22 18M62 48H26M26 51h32c16 0 23 10 20 20M57 81H26" fill="none" stroke="currentColor" stroke-width="8" stroke-linecap="round" stroke-linejoin="round"/></symbol><symbol id="D1" viewBox="0 0 100 100"><path d="M23 19h54a10 10 0 0 1 10 10v39a10 10 0 0 1-10 10H43L25 88V78h-2a10 10 0 0 1-10-10V29a10 10 0 0 1 10-10Z" fill="none" stroke="currentColor" stroke-width="7" stroke-linejoin="round"/><path d="M36 60V47M50 60V38M64 60V31" fill="none" stroke="currentColor" stroke-width="8" stroke-linecap="round"/></symbol><symbol id="D2" viewBox="0 0 100 100"><path d="M22 23h55a9 9 0 0 1 9 9v35a9 9 0 0 1-9 9H41L25 86V76h-3a9 9 0 0 1-9-9V32a9 9 0 0 1 9-9Z" fill="currentColor"/><rect x="34" y="49" width="8" height="15" rx="4" fill="var(--card-bg)"/><rect x="49" y="40" width="8" height="24" rx="4" fill="var(--card-bg)"/><rect x="64" y="31" width="8" height="33" rx="4" fill="var(--card-bg)"/></symbol><symbol id="D3" viewBox="0 0 100 100"><path d="M20 20h58a9 9 0 0 1 9 9v37a9 9 0 0 1-9 9H43L26 86V75h-6a9 9 0 0 1-9-9V29a9 9 0 0 1 9-9Z" fill="none" stroke="currentColor" stroke-width="7" stroke-linejoin="round"/><path d="m30 59 15-13 12 7 16-20" fill="none" stroke="currentColor" stroke-width="7" stroke-linecap="round" stroke-linejoin="round"/><circle cx="30" cy="59" r="4" fill="currentColor"/><circle cx="73" cy="33" r="4" fill="currentColor"/></symbol><symbol id="D4" viewBox="0 0 100 100"><path d="M20 29h59M20 29v40h7v15l18-15h34V29" fill="none" stroke="currentColor" stroke-width="8" stroke-linecap="round" stroke-linejoin="round"/><path d="M36 57V47M50 57V38M64 57V32" fill="none" stroke="currentColor" stroke-width="8" stroke-linecap="round"/></symbol><symbol id="D5" viewBox="0 0 100 100"><path d="M20 27h50a9 9 0 0 1 9 9v34H48L32 83V70H20a9 9 0 0 1-9-9V36a9 9 0 0 1 9-9Z" fill="none" stroke="currentColor" stroke-width="7" stroke-linejoin="round"/><path d="M80 35h3a7 7 0 0 1 7 7v24M35 53h5m10-8h5m10-9h5" fill="none" stroke="currentColor" stroke-width="8" stroke-linecap="round"/></symbol><text class="title" x="52" y="75" font-size="43">BIDACHAT · exploración de logo</text><text class="muted" x="54" y="113" font-size="19">Diez rutas minimalistas · cada símbolo en fondo claro y oscuro · concepto, no marca final</text><path d="M52 142h1896" stroke="#D9E6EC"/><text class="section" x="52" y="185">B ABIERTA</text><text class="section" x="1022" y="185">DIÁLOGO DE DATOS</text><rect x="52" y="212" width="926" height="212" rx="15" fill="#FFFFFF" stroke="#DBE7ED"/><text class="code" x="76" y="254">B1</text><text class="name" x="76" y="287">Trazo continuo</text><text class="desc" x="76" y="316">Un solo gesto.</text><text class="label" x="282" y="242">CLARO</text><rect x="282" y="257" width="325" height="143" rx="12" fill="#FFFFFF" stroke="#DDE9EF"/><use href="#B1" xlink:href="#B1" x="301" y="282" width="92" height="92" style="color:#007E9E;--card-bg:#FFFFFF"/><text class="word" x="393" y="343" fill="#123A53">BIDACHAT</text><text class="label" x="623" y="242">OSCURO</text><rect x="623" y="257" width="325" height="143" rx="12" fill="#08111F" stroke="#24465B"/><use href="#B1" xlink:href="#B1" x="642" y="282" width="92" height="92" style="color:#51D7EF;--card-bg:#08111F"/><text class="word" x="734" y="343" fill="#F8FAFC">BIDACHAT</text><rect x="52" y="444" width="926" height="212" rx="15" fill="#FFFFFF" stroke="#DBE7ED"/><text class="code" x="76" y="486">B2</text><text class="name" x="76" y="519">Apertura lateral</text><text class="desc" x="76" y="548">Dos arcos abiertos.</text><text class="label" x="282" y="474">CLARO</text><rect x="282" y="489" width="325" height="143" rx="12" fill="#FFFFFF" stroke="#DDE9EF"/><use href="#B2" xlink:href="#B2" x="301" y="514" width="92" height="92" style="color:#007E9E;--card-bg:#FFFFFF"/><text class="word" x="393" y="575" fill="#123A53">BIDACHAT</text><text class="label" x="623" y="474">OSCURO</text><rect x="623" y="489" width="325" height="143" rx="12" fill="#08111F" stroke="#24465B"/><use href="#B2" xlink:href="#B2" x="642" y="514" width="92" height="92" style="color:#51D7EF;--card-bg:#08111F"/><text class="word" x="734" y="575" fill="#F8FAFC">BIDACHAT</text><rect x="52" y="676" width="926" height="212" rx="15" fill="#FFFFFF" stroke="#DBE7ED"/><text class="code" x="76" y="718">B3</text><text class="name" x="76" y="751">B modular</text><text class="desc" x="76" y="780">Geometría modular.</text><text class="label" x="282" y="706">CLARO</text><rect x="282" y="721" width="325" height="143" rx="12" fill="#FFFFFF" stroke="#DDE9EF"/><use href="#B3" xlink:href="#B3" x="301" y="746" width="92" height="92" style="color:#007E9E;--card-bg:#FFFFFF"/><text class="word" x="393" y="807" fill="#123A53">BIDACHAT</text><text class="label" x="623" y="706">OSCURO</text><rect x="623" y="721" width="325" height="143" rx="12" fill="#08111F" stroke="#24465B"/><use href="#B3" xlink:href="#B3" x="642" y="746" width="92" height="92" style="color:#51D7EF;--card-bg:#08111F"/><text class="word" x="734" y="807" fill="#F8FAFC">BIDACHAT</text><rect x="52" y="908" width="926" height="212" rx="15" fill="#FFFFFF" stroke="#DBE7ED"/><text class="code" x="76" y="950">B4</text><text class="name" x="76" y="983">Nodo central</text><text class="desc" x="76" y="1012">Un nodo de datos.</text><text class="label" x="282" y="938">CLARO</text><rect x="282" y="953" width="325" height="143" rx="12" fill="#FFFFFF" stroke="#DDE9EF"/><use href="#B4" xlink:href="#B4" x="301" y="978" width="92" height="92" style="color:#007E9E;--card-bg:#FFFFFF"/><text class="word" x="393" y="1039" fill="#123A53">BIDACHAT</text><text class="label" x="623" y="938">OSCURO</text><rect x="623" y="953" width="325" height="143" rx="12" fill="#08111F" stroke="#24465B"/><use href="#B4" xlink:href="#B4" x="642" y="978" width="92" height="92" style="color:#51D7EF;--card-bg:#08111F"/><text class="word" x="734" y="1039" fill="#F8FAFC">BIDACHAT</text><rect x="52" y="1140" width="926" height="212" rx="15" fill="#FFFFFF" stroke="#DBE7ED"/><text class="code" x="76" y="1182">B5</text><text class="name" x="76" y="1215">Segmentos</text><text class="desc" x="76" y="1244">Ritmo por segmentos.</text><text class="label" x="282" y="1170">CLARO</text><rect x="282" y="1185" width="325" height="143" rx="12" fill="#FFFFFF" stroke="#DDE9EF"/><use href="#B5" xlink:href="#B5" x="301" y="1210" width="92" height="92" style="color:#007E9E;--card-bg:#FFFFFF"/><text class="word" x="393" y="1271" fill="#123A53">BIDACHAT</text><text class="label" x="623" y="1170">OSCURO</text><rect x="623" y="1185" width="325" height="143" rx="12" fill="#08111F" stroke="#24465B"/><use href="#B5" xlink:href="#B5" x="642" y="1210" width="92" height="92" style="color:#51D7EF;--card-bg:#08111F"/><text class="word" x="734" y="1271" fill="#F8FAFC">BIDACHAT</text><rect x="1022" y="212" width="926" height="212" rx="15" fill="#FFFFFF" stroke="#DBE7ED"/><text class="code" x="1046" y="254">D1</text><text class="name" x="1046" y="287">Barras</text><text class="desc" x="1046" y="316">Directo y reconocible.</text><text class="label" x="1252" y="242">CLARO</text><rect x="1252" y="257" width="325" height="143" rx="12" fill="#FFFFFF" stroke="#DDE9EF"/><use href="#D1" xlink:href="#D1" x="1271" y="282" width="92" height="92" style="color:#007E9E;--card-bg:#FFFFFF"/><text class="word" x="1363" y="343" fill="#123A53">BIDACHAT</text><text class="label" x="1593" y="242">OSCURO</text><rect x="1593" y="257" width="325" height="143" rx="12" fill="#08111F" stroke="#24465B"/><use href="#D1" xlink:href="#D1" x="1612" y="282" width="92" height="92" style="color:#51D7EF;--card-bg:#08111F"/><text class="word" x="1704" y="343" fill="#F8FAFC">BIDACHAT</text><rect x="1022" y="444" width="926" height="212" rx="15" fill="#FFFFFF" stroke="#DBE7ED"/><text class="code" x="1046" y="486">D2</text><text class="name" x="1046" y="519">Pulso vertical</text><text class="desc" x="1046" y="548">Tres datos en diálogo.</text><text class="label" x="1252" y="474">CLARO</text><rect x="1252" y="489" width="325" height="143" rx="12" fill="#FFFFFF" stroke="#DDE9EF"/><use href="#D2" xlink:href="#D2" x="1271" y="514" width="92" height="92" style="color:#007E9E;--card-bg:#FFFFFF"/><text class="word" x="1363" y="575" fill="#123A53">BIDACHAT</text><text class="label" x="1593" y="474">OSCURO</text><rect x="1593" y="489" width="325" height="143" rx="12" fill="#08111F" stroke="#24465B"/><use href="#D2" xlink:href="#D2" x="1612" y="514" width="92" height="92" style="color:#51D7EF;--card-bg:#08111F"/><text class="word" x="1704" y="575" fill="#F8FAFC">BIDACHAT</text><rect x="1022" y="676" width="926" height="212" rx="15" fill="#FFFFFF" stroke="#DBE7ED"/><text class="code" x="1046" y="718">D3</text><text class="name" x="1046" y="751">Tendencia</text><text class="desc" x="1046" y="780">Línea de análisis.</text><text class="label" x="1252" y="706">CLARO</text><rect x="1252" y="721" width="325" height="143" rx="12" fill="#FFFFFF" stroke="#DDE9EF"/><use href="#D3" xlink:href="#D3" x="1271" y="746" width="92" height="92" style="color:#007E9E;--card-bg:#FFFFFF"/><text class="word" x="1363" y="807" fill="#123A53">BIDACHAT</text><text class="label" x="1593" y="706">OSCURO</text><rect x="1593" y="721" width="325" height="143" rx="12" fill="#08111F" stroke="#24465B"/><use href="#D3" xlink:href="#D3" x="1612" y="746" width="92" height="92" style="color:#51D7EF;--card-bg:#08111F"/><text class="word" x="1704" y="807" fill="#F8FAFC">BIDACHAT</text><rect x="1022" y="908" width="926" height="212" rx="15" fill="#FFFFFF" stroke="#DBE7ED"/><text class="code" x="1046" y="950">D4</text><text class="name" x="1046" y="983">Panel abierto</text><text class="desc" x="1046" y="1012">La ventana conversa.</text><text class="label" x="1252" y="938">CLARO</text><rect x="1252" y="953" width="325" height="143" rx="12" fill="#FFFFFF" stroke="#DDE9EF"/><use href="#D4" xlink:href="#D4" x="1271" y="978" width="92" height="92" style="color:#007E9E;--card-bg:#FFFFFF"/><text class="word" x="1363" y="1039" fill="#123A53">BIDACHAT</text><text class="label" x="1593" y="938">OSCURO</text><rect x="1593" y="953" width="325" height="143" rx="12" fill="#08111F" stroke="#24465B"/><use href="#D4" xlink:href="#D4" x="1612" y="978" width="92" height="92" style="color:#51D7EF;--card-bg:#08111F"/><text class="word" x="1704" y="1039" fill="#F8FAFC">BIDACHAT</text><rect x="1022" y="1140" width="926" height="212" rx="15" fill="#FFFFFF" stroke="#DBE7ED"/><text class="code" x="1046" y="1182">D5</text><text class="name" x="1046" y="1215">Dos voces</text><text class="desc" x="1046" y="1244">Respuesta y avance.</text><text class="label" x="1252" y="1170">CLARO</text><rect x="1252" y="1185" width="325" height="143" rx="12" fill="#FFFFFF" stroke="#DDE9EF"/><use href="#D5" xlink:href="#D5" x="1271" y="1210" width="92" height="92" style="color:#007E9E;--card-bg:#FFFFFF"/><text class="word" x="1363" y="1271" fill="#123A53">BIDACHAT</text><text class="label" x="1593" y="1170">OSCURO</text><rect x="1593" y="1185" width="325" height="143" rx="12" fill="#08111F" stroke="#24465B"/><use href="#D5" xlink:href="#D5" x="1612" y="1210" width="92" height="92" style="color:#51D7EF;--card-bg:#08111F"/><text class="word" x="1704" y="1271" fill="#F8FAFC">BIDACHAT</text><path d="M52 1390h1896" stroke="#D9E6EC"/><text class="muted" x="52" y="1430" font-size="16">Paleta de referencia: turquesa BI-DATA, azul profundo y blanco. Los símbolos se dibujaron en un solo color para validar su uso compacto.</text></svg>